<svg width="270" height="64" viewBox="0 0 270 64" fill="none" xmlns="http://www.w3.org/2000/svg">
<rect width="270" height="64" rx="32" fill="white"/>
<path d="M68.2344 36.9531C68.2344 36.5365 68.2799 36.25 68.3711 36.0938C68.4622 35.9375 68.6641 35.8594 68.9766 35.8594H74.0547C74.3932 35.8594 74.6016 35.9245 74.6797 36.0547C74.7708 36.1719 74.8164 36.4062 74.8164 36.7578V37.5977C74.8164 38.1836 74.9206 38.5807 75.1289 38.7891C75.3503 38.9974 75.6302 39.1016 75.9688 39.1016C76.2682 39.1016 76.5156 38.9974 76.7109 38.7891C76.9193 38.5807 77.0234 38.2552 77.0234 37.8125C77.0234 37.526 76.9714 37.2591 76.8672 37.0117C76.763 36.7643 76.6068 36.5169 76.3984 36.2695C76.1901 36.0221 75.9297 35.7682 75.6172 35.5078C75.3047 35.2344 74.9466 34.9349 74.543 34.6094C73.7357 33.9583 73.0195 33.3789 72.3945 32.8711C71.7695 32.3503 71.2227 31.8685 70.7539 31.4258C70.2982 30.9701 69.9076 30.5208 69.582 30.0781C69.2565 29.6354 68.9961 29.1602 68.8008 28.6523C68.6055 28.1445 68.4622 27.5846 68.3711 26.9727C68.2799 26.3477 68.2344 25.6315 68.2344 24.8242C68.2344 23.6263 68.4557 22.5716 68.8984 21.6602C69.3542 20.7487 69.9401 19.987 70.6562 19.375C71.3724 18.763 72.1732 18.3008 73.0586 17.9883C73.944 17.6758 74.8229 17.5195 75.6953 17.5195C76.776 17.5195 77.7786 17.6953 78.7031 18.0469C79.6276 18.3854 80.4219 18.8867 81.0859 19.5508C81.763 20.2018 82.2904 21.0091 82.668 21.9727C83.0586 22.9362 83.2539 24.0299 83.2539 25.2539V26.3281C83.2539 26.6406 83.2018 26.8555 83.0977 26.9727C82.9935 27.0768 82.7526 27.1289 82.375 27.1289H77.3945C77.1211 27.1289 76.9453 27.0768 76.8672 26.9727C76.8021 26.8555 76.7695 26.6341 76.7695 26.3086V25.293C76.7695 24.8242 76.6849 24.4661 76.5156 24.2188C76.3594 23.9714 76.0924 23.8477 75.7148 23.8477C75.3763 23.8477 75.1224 23.9583 74.9531 24.1797C74.7969 24.401 74.7188 24.681 74.7188 25.0195C74.7188 25.319 74.7448 25.5794 74.7969 25.8008C74.862 26.0221 74.9727 26.2435 75.1289 26.4648C75.2852 26.6732 75.5065 26.901 75.793 27.1484C76.0794 27.3828 76.457 27.6628 76.9258 27.9883C77.8112 28.6263 78.6576 29.2839 79.4648 29.9609C80.2852 30.625 81.0078 31.3607 81.6328 32.168C82.2578 32.9753 82.7526 33.8737 83.1172 34.8633C83.4948 35.8398 83.6836 36.9531 83.6836 38.2031C83.6836 39.2057 83.5013 40.1497 83.1367 41.0352C82.7721 41.9076 82.2513 42.6693 81.5742 43.3203C80.8971 43.9714 80.0768 44.4922 79.1133 44.8828C78.1497 45.2604 77.0755 45.4492 75.8906 45.4492C74.4844 45.4492 73.293 45.2214 72.3164 44.7656C71.3398 44.3099 70.5456 43.7305 69.9336 43.0273C69.3346 42.3112 68.8984 41.5104 68.625 40.625C68.3646 39.7396 68.2344 38.8672 68.2344 38.0078V36.9531ZM84.3281 31.0352C84.3281 30.1497 84.5234 29.3164 84.9141 28.5352C85.3047 27.7539 85.8385 27.0768 86.5156 26.5039C87.1927 25.918 87.9805 25.4557 88.8789 25.1172C89.7904 24.7786 90.7604 24.6094 91.7891 24.6094C92.8438 24.6094 93.8073 24.7786 94.6797 25.1172C95.5521 25.4557 96.3008 25.918 96.9258 26.5039C97.5508 27.0768 98.0326 27.7539 98.3711 28.5352C98.7227 29.3164 98.8984 30.1497 98.8984 31.0352V35.7617C98.8984 36.0221 98.8073 36.2305 98.625 36.3867C98.4557 36.543 98.2279 36.6211 97.9414 36.6211H90.9883V38.9258C90.9883 39.0951 91.0729 39.2773 91.2422 39.4727C91.4115 39.6549 91.6523 39.7461 91.9648 39.7461C92.3034 39.7461 92.5378 39.6419 92.668 39.4336C92.8112 39.2253 92.8828 39.043 92.8828 38.8867V38.4766C92.8828 38.4115 92.9154 38.3203 92.9805 38.2031C93.0586 38.0859 93.2148 38.0273 93.4492 38.0273H98.293C98.4883 38.0273 98.625 38.0729 98.7031 38.1641C98.7812 38.2422 98.8203 38.3659 98.8203 38.5352V38.9453C98.8203 39.8438 98.651 40.6836 98.3125 41.4648C97.974 42.2461 97.4987 42.9297 96.8867 43.5156C96.2747 44.0885 95.5326 44.5443 94.6602 44.8828C93.8008 45.2214 92.8438 45.3906 91.7891 45.3906C90.7604 45.3906 89.7904 45.2214 88.8789 44.8828C87.9805 44.5443 87.1927 44.0885 86.5156 43.5156C85.8385 42.9297 85.3047 42.2461 84.9141 41.4648C84.5234 40.6836 84.3281 39.8438 84.3281 38.9453V31.0352ZM90.9883 32.2656H92.8828V31.0938C92.8828 30.9115 92.8047 30.7292 92.6484 30.5469C92.4922 30.3516 92.2643 30.2539 91.9648 30.2539C91.6523 30.2539 91.4115 30.3516 91.2422 30.5469C91.0729 30.7292 90.9883 30.9049 90.9883 31.0742V32.2656ZM99.8945 32.1875C99.8945 30.7943 100.122 29.6159 100.578 28.6523C101.047 27.6888 101.646 26.9076 102.375 26.3086C103.117 25.7096 103.951 25.2799 104.875 25.0195C105.799 24.7461 106.724 24.6094 107.648 24.6094C108.13 24.6094 108.54 24.6224 108.879 24.6484C109.23 24.6615 109.556 24.7135 109.855 24.8047C110.038 24.8698 110.174 24.9805 110.266 25.1367C110.37 25.293 110.422 25.4818 110.422 25.7031V29.707C110.422 29.9805 110.311 30.1953 110.09 30.3516C109.882 30.5078 109.641 30.5859 109.367 30.5859H108.684C108.072 30.5859 107.564 30.7943 107.16 31.2109C106.757 31.6146 106.555 32.2591 106.555 33.1445V43.9258C106.555 44.1341 106.516 44.3099 106.438 44.4531C106.372 44.5833 106.288 44.694 106.184 44.7852C106.079 44.8633 105.962 44.9219 105.832 44.9609C105.715 44.987 105.604 45 105.5 45H100.559C100.116 45 99.8945 44.7526 99.8945 44.2578V32.1875ZM122.707 44.2969C122.629 44.5312 122.518 44.707 122.375 44.8242C122.232 44.9414 122.03 45 121.77 45H116.359C115.865 45 115.559 44.7656 115.441 44.2969L110.676 26.2695C110.441 25.4232 110.63 25 111.242 25H116.555C117.049 25 117.329 25.2474 117.395 25.7422L118.957 35.2148L119.074 36.4453L119.211 35.1758L120.754 25.7031C120.845 25.2344 121.145 25 121.652 25H126.906C127.31 25 127.538 25.1172 127.59 25.3516C127.642 25.5859 127.616 25.8919 127.512 26.2695L122.707 44.2969ZM128.312 25.6836C128.312 25.4492 128.391 25.2799 128.547 25.1758C128.703 25.0586 128.872 25 129.055 25H134.152C134.374 25 134.569 25.0651 134.738 25.1953C134.921 25.3125 135.012 25.4753 135.012 25.6836V44.3164C135.012 44.5378 134.927 44.707 134.758 44.8242C134.602 44.9414 134.4 45 134.152 45H129.055C128.56 45 128.312 44.7721 128.312 44.3164V25.6836ZM128.156 19.2383C128.156 18.8607 128.26 18.5417 128.469 18.2812C128.677 18.0208 129.055 17.8906 129.602 17.8906H133.762C134.23 17.8906 134.562 18.0143 134.758 18.2617C134.966 18.4961 135.07 18.8216 135.07 19.2383V22.7734C135.07 23.2422 134.953 23.5612 134.719 23.7305C134.497 23.8997 134.178 23.9844 133.762 23.9844H129.602C129.185 23.9844 128.84 23.9062 128.566 23.75C128.293 23.5807 128.156 23.2617 128.156 22.793V19.2383ZM136.262 31.0352C136.262 30.1497 136.457 29.3164 136.848 28.5352C137.238 27.7539 137.772 27.0768 138.449 26.5039C139.126 25.918 139.914 25.4557 140.812 25.1172C141.724 24.7786 142.694 24.6094 143.723 24.6094C144.777 24.6094 145.747 24.7786 146.633 25.1172C147.518 25.4557 148.28 25.918 148.918 26.5039C149.556 27.0768 150.051 27.7539 150.402 28.5352C150.767 29.3164 150.949 30.1497 150.949 31.0352V32.8711C150.949 33.1055 150.91 33.2747 150.832 33.3789C150.767 33.4701 150.604 33.5156 150.344 33.5156H145.676C145.298 33.5156 145.057 33.4635 144.953 33.3594C144.862 33.2552 144.816 33.0729 144.816 32.8125V31.2695C144.816 31.1003 144.745 30.918 144.602 30.7227C144.471 30.5143 144.237 30.4102 143.898 30.4102C143.586 30.4102 143.345 30.5078 143.176 30.7031C143.007 30.8854 142.922 31.0612 142.922 31.2305V38.75C142.922 38.9323 143.007 39.1211 143.176 39.3164C143.345 39.4987 143.586 39.5898 143.898 39.5898C144.237 39.5898 144.471 39.4857 144.602 39.2773C144.745 39.069 144.816 38.8867 144.816 38.7305V37.6953C144.816 37.4349 144.849 37.2526 144.914 37.1484C144.992 37.0312 145.181 36.9727 145.48 36.9727H150.344C150.604 36.9727 150.767 37.0247 150.832 37.1289C150.91 37.2331 150.949 37.3828 150.949 37.5781V38.9453C150.949 39.8438 150.767 40.6836 150.402 41.4648C150.051 42.2461 149.556 42.9297 148.918 43.5156C148.28 44.0885 147.518 44.5443 146.633 44.8828C145.747 45.2214 144.777 45.3906 143.723 45.3906C142.694 45.3906 141.724 45.2409 140.812 44.9414C139.914 44.6289 139.126 44.1927 138.449 43.6328C137.772 43.0729 137.238 42.3958 136.848 41.6016C136.457 40.8073 136.262 39.9219 136.262 38.9453V31.0352ZM151.789 31.0352C151.789 30.1497 151.984 29.3164 152.375 28.5352C152.766 27.7539 153.299 27.0768 153.977 26.5039C154.654 25.918 155.441 25.4557 156.34 25.1172C157.251 24.7786 158.221 24.6094 159.25 24.6094C160.305 24.6094 161.268 24.7786 162.141 25.1172C163.013 25.4557 163.762 25.918 164.387 26.5039C165.012 27.0768 165.493 27.7539 165.832 28.5352C166.184 29.3164 166.359 30.1497 166.359 31.0352V35.7617C166.359 36.0221 166.268 36.2305 166.086 36.3867C165.917 36.543 165.689 36.6211 165.402 36.6211H158.449V38.9258C158.449 39.0951 158.534 39.2773 158.703 39.4727C158.872 39.6549 159.113 39.7461 159.426 39.7461C159.764 39.7461 159.999 39.6419 160.129 39.4336C160.272 39.2253 160.344 39.043 160.344 38.8867V38.4766C160.344 38.4115 160.376 38.3203 160.441 38.2031C160.52 38.0859 160.676 38.0273 160.91 38.0273H165.754C165.949 38.0273 166.086 38.0729 166.164 38.1641C166.242 38.2422 166.281 38.3659 166.281 38.5352V38.9453C166.281 39.8438 166.112 40.6836 165.773 41.4648C165.435 42.2461 164.96 42.9297 164.348 43.5156C163.736 44.0885 162.993 44.5443 162.121 44.8828C161.262 45.2214 160.305 45.3906 159.25 45.3906C158.221 45.3906 157.251 45.2214 156.34 44.8828C155.441 44.5443 154.654 44.0885 153.977 43.5156C153.299 42.9297 152.766 42.2461 152.375 41.4648C151.984 40.6836 151.789 39.8438 151.789 38.9453V31.0352ZM158.449 32.2656H160.344V31.0938C160.344 30.9115 160.266 30.7292 160.109 30.5469C159.953 30.3516 159.725 30.2539 159.426 30.2539C159.113 30.2539 158.872 30.3516 158.703 30.5469C158.534 30.7292 158.449 30.9049 158.449 31.0742V32.2656Z" fill="#012E43"/>
<path d="M167.062 38.8867C167.062 38.6654 167.16 38.5156 167.355 38.4375C167.564 38.3464 167.857 38.3008 168.234 38.3008H172.785C173.15 38.3008 173.332 38.5091 173.332 38.9258V39.1406C173.332 39.375 173.43 39.5378 173.625 39.6289C173.82 39.707 174.016 39.7461 174.211 39.7461C174.432 39.7461 174.647 39.707 174.855 39.6289C175.064 39.5508 175.168 39.375 175.168 39.1016C175.168 38.8151 175.005 38.5612 174.68 38.3398C174.354 38.1185 173.957 37.9167 173.488 37.7344C173.033 37.5391 172.551 37.3503 172.043 37.168C171.535 36.9857 171.099 36.7839 170.734 36.5625C169.641 35.9375 168.788 35.1628 168.176 34.2383C167.577 33.3008 167.277 32.181 167.277 30.8789C167.277 29.9805 167.453 29.1536 167.805 28.3984C168.156 27.6302 168.645 26.9661 169.27 26.4062C169.908 25.8464 170.663 25.4102 171.535 25.0977C172.408 24.7721 173.358 24.6094 174.387 24.6094C175.585 24.6094 176.626 24.7656 177.512 25.0781C178.397 25.3776 179.126 25.8073 179.699 26.3672C180.285 26.9271 180.721 27.6042 181.008 28.3984C181.294 29.1927 181.438 30.0716 181.438 31.0352V31.1328C181.438 31.3672 181.372 31.5039 181.242 31.543C181.125 31.569 180.897 31.582 180.559 31.582H176.164C175.904 31.582 175.728 31.5299 175.637 31.4258C175.546 31.3086 175.5 31.1458 175.5 30.9375V30.8984C175.5 30.6771 175.422 30.5143 175.266 30.4102C175.122 30.306 174.94 30.2539 174.719 30.2539C174.445 30.2539 174.237 30.332 174.094 30.4883C173.951 30.6315 173.879 30.8138 173.879 31.0352C173.879 31.2565 173.938 31.4323 174.055 31.5625C174.172 31.6927 174.361 31.8229 174.621 31.9531C174.895 32.0833 175.246 32.2331 175.676 32.4023C176.118 32.5716 176.652 32.806 177.277 33.1055C178.827 33.8477 179.973 34.7461 180.715 35.8008C181.457 36.8424 181.828 37.9492 181.828 39.1211C181.828 40.0586 181.652 40.9115 181.301 41.6797C180.962 42.4479 180.474 43.112 179.836 43.6719C179.198 44.2188 178.423 44.6419 177.512 44.9414C176.613 45.2409 175.611 45.3906 174.504 45.3906C173.423 45.3906 172.486 45.306 171.691 45.1367C170.91 44.9674 170.24 44.7331 169.68 44.4336C169.133 44.1341 168.69 43.7826 168.352 43.3789C168.013 42.9622 167.746 42.5195 167.551 42.0508C167.355 41.569 167.225 41.0677 167.16 40.5469C167.095 40.013 167.062 39.4792 167.062 38.9453V38.8867ZM182.551 31.0547C182.551 30.0781 182.746 29.1927 183.137 28.3984C183.527 27.6042 184.061 26.9271 184.738 26.3672C185.415 25.8073 186.21 25.3776 187.121 25.0781C188.033 24.7656 189.009 24.6094 190.051 24.6094C191.092 24.6094 192.069 24.7656 192.98 25.0781C193.905 25.3776 194.706 25.8073 195.383 26.3672C196.073 26.9271 196.613 27.6042 197.004 28.3984C197.395 29.1927 197.59 30.0781 197.59 31.0547V38.9648C197.59 39.9414 197.421 40.8268 197.082 41.6211C196.757 42.4023 196.301 43.0729 195.715 43.6328C195.129 44.1927 194.432 44.6289 193.625 44.9414C192.818 45.2409 191.932 45.3906 190.969 45.3906C190.422 45.3906 189.836 45.293 189.211 45.0977V50.4297C189.211 50.9115 188.977 51.1523 188.508 51.1523H183.293C182.798 51.1523 182.551 50.9115 182.551 50.4297V31.0547ZM189.211 38.8477C189.237 39.0169 189.315 39.1862 189.445 39.3555C189.576 39.5117 189.79 39.5898 190.09 39.5898C190.389 39.5898 190.604 39.4987 190.734 39.3164C190.865 39.1211 190.93 38.9323 190.93 38.75V31.25C190.93 31.0807 190.865 30.8984 190.734 30.7031C190.604 30.5078 190.389 30.4102 190.09 30.4102C189.79 30.4102 189.569 30.5078 189.426 30.7031C189.283 30.8854 189.211 31.0677 189.211 31.25V38.8477ZM198.605 32.1875C198.605 30.7943 198.833 29.6159 199.289 28.6523C199.758 27.6888 200.357 26.9076 201.086 26.3086C201.828 25.7096 202.661 25.2799 203.586 25.0195C204.51 24.7461 205.435 24.6094 206.359 24.6094C206.841 24.6094 207.251 24.6224 207.59 24.6484C207.941 24.6615 208.267 24.7135 208.566 24.8047C208.749 24.8698 208.885 24.9805 208.977 25.1367C209.081 25.293 209.133 25.4818 209.133 25.7031V29.707C209.133 29.9805 209.022 30.1953 208.801 30.3516C208.592 30.5078 208.352 30.5859 208.078 30.5859H207.395C206.783 30.5859 206.275 30.7943 205.871 31.2109C205.467 31.6146 205.266 32.2591 205.266 33.1445V43.9258C205.266 44.1341 205.227 44.3099 205.148 44.4531C205.083 44.5833 204.999 44.694 204.895 44.7852C204.79 44.8633 204.673 44.9219 204.543 44.9609C204.426 44.987 204.315 45 204.211 45H199.27C198.827 45 198.605 44.7526 198.605 44.2578V32.1875ZM210.148 25.6836C210.148 25.4492 210.227 25.2799 210.383 25.1758C210.539 25.0586 210.708 25 210.891 25H215.988C216.21 25 216.405 25.0651 216.574 25.1953C216.757 25.3125 216.848 25.4753 216.848 25.6836V44.3164C216.848 44.5378 216.763 44.707 216.594 44.8242C216.438 44.9414 216.236 45 215.988 45H210.891C210.396 45 210.148 44.7721 210.148 44.3164V25.6836ZM209.992 19.2383C209.992 18.8607 210.096 18.5417 210.305 18.2812C210.513 18.0208 210.891 17.8906 211.438 17.8906H215.598C216.066 17.8906 216.398 18.0143 216.594 18.2617C216.802 18.4961 216.906 18.8216 216.906 19.2383V22.7734C216.906 23.2422 216.789 23.5612 216.555 23.7305C216.333 23.8997 216.014 23.9844 215.598 23.9844H211.438C211.021 23.9844 210.676 23.9062 210.402 23.75C210.129 23.5807 209.992 23.2617 209.992 22.793V19.2383ZM225.109 44.2578C225.109 44.7526 224.908 45 224.504 45H219.113C218.905 45 218.736 44.9414 218.605 44.8242C218.488 44.694 218.43 44.5052 218.43 44.2578V31.1523C218.43 30.319 218.605 29.5117 218.957 28.7305C219.309 27.9492 219.803 27.2526 220.441 26.6406C221.092 26.0286 221.861 25.5404 222.746 25.1758C223.645 24.7982 224.641 24.6094 225.734 24.6094C226.971 24.6094 228.072 24.7786 229.035 25.1172C229.999 25.4557 230.806 25.918 231.457 26.5039C232.121 27.0898 232.622 27.7799 232.961 28.5742C233.312 29.3685 233.488 30.2148 233.488 31.1133V32.6562L233.254 32.6172L233.488 32.6758V44.2578C233.488 44.5052 233.423 44.694 233.293 44.8242C233.176 44.9414 233.013 45 232.805 45H227.473C227.03 45 226.809 44.7526 226.809 44.2578V31.2305C226.783 31.0091 226.698 30.8203 226.555 30.6641C226.424 30.4948 226.229 30.4102 225.969 30.4102C225.63 30.4102 225.402 30.5143 225.285 30.7227C225.168 30.918 225.109 31.1198 225.109 31.3281V44.2578ZM242.473 24.9805H243.938C244.354 24.9805 244.562 25.2604 244.562 25.8203V30C244.562 30.2604 244.491 30.4622 244.348 30.6055C244.217 30.7487 244.048 30.8203 243.84 30.8203H242.473V37.5C242.473 37.7604 242.499 37.9883 242.551 38.1836C242.603 38.3789 242.701 38.5417 242.844 38.6719C242.987 38.8021 243.176 38.8997 243.41 38.9648C243.658 39.0299 243.977 39.0625 244.367 39.0625H244.465C244.634 39.0625 244.764 39.0951 244.855 39.1602C244.947 39.2122 245.012 39.2839 245.051 39.375C245.09 39.4531 245.109 39.5443 245.109 39.6484C245.122 39.7526 245.129 39.8438 245.129 39.9219V44.2969C245.129 44.375 245.122 44.4596 245.109 44.5508C245.096 44.6289 245.044 44.7005 244.953 44.7656C244.862 44.8307 244.725 44.8893 244.543 44.9414C244.361 44.9805 244.107 45 243.781 45H242.395C241.522 45 240.689 44.9023 239.895 44.707C239.1 44.5117 238.397 44.1536 237.785 43.6328C237.186 43.112 236.704 42.3958 236.34 41.4844C235.975 40.5729 235.793 39.3945 235.793 37.9492V30.8203H234.973C234.842 30.8203 234.699 30.7487 234.543 30.6055C234.4 30.4622 234.328 30.2604 234.328 30V25.8789C234.328 25.5794 234.4 25.3581 234.543 25.2148C234.686 25.0586 234.829 24.9805 234.973 24.9805H235.793V22.1484C235.793 21.888 235.826 21.6992 235.891 21.582C235.969 21.4518 236.138 21.3477 236.398 21.2695L241.594 19.7461C241.854 19.668 242.062 19.694 242.219 19.8242C242.388 19.9414 242.473 20.1367 242.473 20.4102V24.9805Z" fill="#00C25C"/>
<path d="M11 32C11 20.402 20.402 11 32 11H47C50.3137 11 53 13.6863 53 17V32C53 43.598 43.598 53 32 53V53C20.402 53 11 43.598 11 32V32Z" fill="#00C25C"/>
<g clip-path="url(#clip0_2_15)">
<path d="M37.8519 32.2764V38.7833C37.8519 39.1712 37.5384 39.4844 37.1507 39.4844C36.7637 39.4844 36.4496 39.1712 36.4496 38.7833V32.2764C36.4496 31.8893 36.7637 31.5753 37.1507 31.5753C37.5384 31.5753 37.8519 31.889 37.8519 32.2764Z" fill="white"/>
<path d="M40.0526 39.4924H38.5088V31.767C38.5045 31.73 38.4978 31.6931 38.4978 31.6551C38.4978 28.3222 35.8076 25.6111 32.5015 25.6111C29.1957 25.6111 26.5055 28.3222 26.5055 31.6551C26.5055 31.7061 26.498 31.7555 26.4904 31.8047V39.4924H24.9464C23.8718 39.4924 22.9999 38.5906 22.9999 37.478V33.4493C22.9999 32.5318 23.5942 31.7588 24.4056 31.5156C24.4802 27.0879 28.082 23.5077 32.5011 23.5077C36.9215 23.5077 40.5238 27.0882 40.5977 31.5173C41.4079 31.7608 42 32.5332 42 33.45V37.478C42 38.5899 41.1282 39.4924 40.0526 39.4924Z" fill="white"/>
<path d="M28.549 32.2764V38.7833C28.549 39.1712 28.2351 39.4844 27.8479 39.4844C27.4608 39.4844 27.1469 39.1712 27.1469 38.7833V32.2764C27.1469 31.8893 27.4608 31.5753 27.8479 31.5753C28.2358 31.5753 28.549 31.889 28.549 32.2764Z" fill="white"/>
</g>
<defs>
<clipPath id="clip0_2_15">
<rect width="19" height="19" fill="white" transform="matrix(-1 0 0 1 42 22)"/>
</clipPath>
</defs>
</svg>
