<svg width="42" height="42" viewBox="0 0 42 42" fill="none" xmlns="http://www.w3.org/2000/svg">
<path d="M0 21C0 9.40202 9.40202 0 21 0H36C39.3137 0 42 2.68629 42 6V21C42 32.598 32.598 42 21 42V42C9.40202 42 0 32.598 0 21V21Z" fill="#00C25C"/>
<g clip-path="url(#clip0_2_42)">
<path d="M26.8519 21.2764V27.7833C26.8519 28.1712 26.5384 28.4844 26.1507 28.4844C25.7637 28.4844 25.4496 28.1712 25.4496 27.7833V21.2764C25.4496 20.8893 25.7637 20.5753 26.1507 20.5753C26.5384 20.5753 26.8519 20.8889 26.8519 21.2764Z" fill="white"/>
<path d="M29.0526 28.4924H27.5088V20.767C27.5045 20.73 27.4978 20.6931 27.4978 20.6551C27.4978 17.3222 24.8076 14.611 21.5015 14.611C18.1957 14.611 15.5055 17.3222 15.5055 20.6551C15.5055 20.7061 15.498 20.7555 15.4904 20.8047V28.4924H13.9464C12.8718 28.4924 11.9999 27.5906 11.9999 26.478V22.4493C11.9999 21.5318 12.5942 20.7588 13.4056 20.5155C13.4802 16.0879 17.082 12.5076 21.5011 12.5076C25.9215 12.5076 29.5238 16.0882 29.5977 20.5173C30.4079 20.7608 31 21.5332 31 22.4499V26.478C31 27.5899 30.1282 28.4924 29.0526 28.4924Z" fill="white"/>
<path d="M17.549 21.2764V27.7833C17.549 28.1712 17.2351 28.4844 16.8479 28.4844C16.4608 28.4844 16.1469 28.1712 16.1469 27.7833V21.2764C16.1469 20.8893 16.4608 20.5753 16.8479 20.5753C17.2358 20.5753 17.549 20.8889 17.549 21.2764Z" fill="white"/>
</g>
<defs>
<clipPath id="clip0_2_42">
<rect width="19" height="19" fill="white" transform="matrix(-1 0 0 1 31 11)"/>
</clipPath>
</defs>
</svg>
